<?xml version="1.0" standalone="no"?>
<!DOCTYPE svg PUBLIC "-//W3C//DTD SVG 20010904//EN"
 "http://www.w3.org/TR/2001/REC-SVG-20010904/DTD/svg10.dtd">
<svg version="1.0" xmlns="http://www.w3.org/2000/svg"
 width="900.000000pt" height="1593.000000pt" viewBox="0 0 900.000000 1593.000000"
 preserveAspectRatio="xMidYMid meet">
<metadata>
Created by potrace 1.10, written by Peter Selinger 2001-2011
</metadata>
<g transform="translate(0.000000,1593.000000) scale(0.100000,-0.100000)"
fill="#000000" stroke="none">
<path d="M835 15921 c8 -14 -28 -31 -62 -31 -51 0 -223 -69 -264 -106 -8 -8
-21 -14 -27 -14 -7 0 -12 -4 -12 -9 0 -5 -10 -13 -21 -16 -29 -10 -174 -155
-237 -239 -59 -78 -162 -281 -162 -319 0 -14 -5 -38 -11 -54 -10 -25 -30 -177
-30 -228 -1 -60 21 -157 46 -210 47 -99 141 -238 250 -369 103 -124 121 -144
169 -195 28 -30 60 -67 72 -82 11 -16 63 -72 114 -126 667 -700 314 -345 4628
-4666 703 -705 1272 -1283 1272 -1292 0 -10 -899 -918 -2022 -2041 -1112
-1113 -2024 -2028 -2028 -2033 -3 -6 -296 -302 -650 -658 -620 -624 -1090
-1104 -1161 -1188 -19 -22 -61 -69 -95 -105 -142 -153 -186 -201 -282 -318
-100 -121 -221 -294 -253 -362 -53 -114 -54 -119 -52 -254 1 -86 7 -148 17
-181 9 -27 16 -60 16 -72 0 -22 17 -67 46 -126 8 -16 14 -32 14 -37 0 -23 132
-202 199 -270 174 -177 335 -267 541 -302 90 -15 291 -21 303 -9 6 6 19 11 29
11 39 0 260 134 374 226 61 51 198 167 204 174 3 4 41 37 85 75 44 38 94 82
111 99 17 17 94 89 170 161 355 331 722 694 2763 2736 1648 1648 2974 2983
3087 3108 27 30 98 104 158 165 437 446 713 765 771 891 41 89 58 185 58 329
0 100 -3 139 -15 162 -9 16 -25 49 -37 74 -12 25 -31 59 -41 75 -11 17 -23 37
-27 45 -10 21 -147 203 -207 275 -52 62 -216 246 -227 255 -3 3 -25 28 -49 55
-42 50 -275 298 -380 404 -30 31 -102 106 -159 166 -501 527 -4243 4275 -4947
4955 -60 58 -211 204 -335 325 -255 249 -605 585 -724 695 -44 41 -103 96
-131 122 -27 26 -75 71 -105 99 -137 129 -235 186 -339 197 -47 4 -74 18 -64
33 3 5 -71 9 -171 9 -109 0 -174 -4 -170 -9z"/>
</g>
</svg>
