<?xml version="1.0" standalone="no"?>
<!DOCTYPE svg PUBLIC "-//W3C//DTD SVG 20010904//EN"
 "http://www.w3.org/TR/2001/REC-SVG-20010904/DTD/svg10.dtd">
<svg version="1.0" xmlns="http://www.w3.org/2000/svg"
 width="900.000000pt" height="378.000000pt" viewBox="0 0 900.000000 378.000000"
 preserveAspectRatio="xMidYMid meet">
<metadata>
Created by potrace 1.10, written by Peter Selinger 2001-2011
</metadata>
<g transform="translate(0.000000,378.000000) scale(0.100000,-0.100000)"
fill="#000000" stroke="none">
<path d="M3167 3758 c-3 -13 -15 -48 -27 -78 -12 -30 -25 -66 -30 -80 -5 -14
-18 -50 -30 -80 -12 -30 -32 -86 -45 -125 -13 -38 -34 -95 -45 -125 -12 -30
-25 -66 -30 -80 -5 -14 -25 -70 -46 -125 -20 -55 -38 -112 -41 -127 -3 -15
-11 -33 -19 -39 -8 -6 -14 -24 -14 -39 0 -15 -7 -33 -15 -40 -8 -7 -15 -24
-15 -39 0 -14 -7 -35 -15 -45 -8 -11 -15 -31 -15 -44 0 -13 -7 -30 -15 -38 -8
-9 -15 -28 -15 -43 0 -16 -7 -34 -15 -41 -8 -7 -15 -24 -15 -39 0 -14 -7 -35
-15 -45 -8 -11 -15 -29 -15 -40 0 -12 -7 -30 -15 -40 -8 -11 -15 -29 -15 -40
0 -12 -7 -30 -15 -40 -8 -11 -15 -32 -15 -47 0 -14 -7 -32 -15 -39 -8 -7 -15
-25 -15 -40 0 -15 -7 -33 -15 -40 -8 -7 -15 -24 -15 -39 0 -14 -7 -35 -15 -45
-8 -11 -15 -31 -15 -44 0 -13 -7 -30 -15 -38 -8 -9 -15 -25 -15 -37 0 -12 -7
-31 -15 -41 -8 -11 -15 -31 -15 -44 0 -13 -7 -30 -15 -38 -8 -9 -15 -28 -15
-43 0 -16 -7 -34 -15 -41 -8 -7 -15 -24 -15 -39 0 -14 -7 -35 -15 -45 -8 -11
-15 -29 -15 -40 0 -12 -7 -30 -15 -40 -8 -11 -15 -32 -15 -47 0 -14 -7 -32
-15 -39 -8 -7 -15 -25 -15 -40 0 -15 -7 -33 -15 -40 -8 -7 -15 -24 -15 -39 0
-14 -7 -35 -15 -45 -8 -11 -15 -29 -15 -40 0 -12 -7 -30 -15 -40 -8 -11 -15
-29 -15 -40 0 -12 -7 -30 -15 -40 -8 -11 -15 -31 -15 -44 0 -13 -7 -30 -15
-38 -8 -9 -15 -28 -15 -43 0 -16 -7 -34 -15 -41 -8 -7 -15 -25 -15 -40 0 -15
-7 -33 -15 -40 -8 -7 -15 -24 -15 -39 0 -14 -7 -35 -15 -45 -8 -11 -15 -31
-15 -44 0 -13 -7 -30 -15 -38 -8 -9 -15 -28 -15 -43 0 -16 -7 -34 -15 -41 -8
-7 -15 -25 -15 -40 0 -15 -7 -33 -15 -40 -8 -7 -15 -24 -15 -39 0 -14 -7 -35
-15 -45 -8 -11 -15 -29 -15 -40 0 -12 -7 -30 -15 -40 -8 -11 -15 -31 -15 -44
0 -13 -7 -30 -15 -38 -8 -9 -15 -27 -15 -40 0 -14 -7 -32 -15 -40 -8 -9 -15
-28 -15 -43 0 -16 -7 -34 -15 -41 -8 -7 -15 -21 -15 -31 0 -10 -11 -25 -23
-34 -21 -13 -97 -15 -603 -13 -544 3 -579 4 -576 20 2 10 29 62 60 115 32 54
61 105 65 113 4 8 16 29 27 45 11 17 23 37 27 45 4 8 32 58 63 110 31 52 59
102 63 110 4 8 16 29 27 45 11 17 23 37 27 45 4 8 25 47 48 85 22 39 44 77 48
85 4 8 16 29 27 45 11 17 23 37 27 45 4 8 39 69 78 135 39 66 74 127 78 135 4
8 13 24 20 35 7 11 37 63 67 115 30 52 60 104 67 115 7 11 16 27 20 35 9 19
149 260 163 280 6 8 13 22 17 30 8 16 147 256 163 280 6 8 13 22 17 30 7 16
117 206 133 230 6 8 13 22 17 30 4 8 39 69 78 135 39 66 74 127 78 135 4 8 16
29 27 45 11 17 23 37 27 45 4 8 25 47 48 85 22 39 44 77 48 85 4 8 16 29 27
45 11 17 23 37 27 45 4 8 32 58 63 110 31 52 59 102 63 110 4 8 16 29 27 45
11 17 23 37 27 45 4 8 25 47 48 85 22 39 44 77 48 85 4 8 14 26 22 39 7 14 12
29 9 33 -3 4 -558 8 -1234 8 l-1230 0 -6 -25 c-9 -38 0 -1028 10 -1044 15 -24
23 6 25 92 5 234 126 514 295 683 80 79 133 116 241 167 65 31 105 45 225 78
58 16 1018 25 1033 10 7 -7 6 -16 -4 -27 -13 -16 -32 -46 -46 -74 -4 -8 -26
-46 -48 -85 -23 -38 -44 -77 -48 -85 -4 -8 -16 -28 -27 -45 -11 -16 -23 -37
-27 -45 -4 -8 -32 -58 -63 -110 -31 -52 -59 -102 -63 -110 -4 -8 -16 -28 -27
-45 -11 -16 -23 -37 -27 -45 -8 -17 -148 -258 -163 -280 -6 -8 -13 -22 -17
-30 -4 -8 -32 -58 -63 -110 -31 -52 -59 -102 -63 -110 -4 -8 -13 -24 -20 -35
-7 -11 -37 -63 -67 -115 -30 -52 -60 -104 -67 -115 -7 -11 -17 -29 -23 -40 -6
-11 -19 -33 -30 -50 -11 -16 -23 -37 -27 -45 -4 -8 -26 -46 -48 -85 -23 -38
-44 -77 -48 -85 -4 -8 -16 -28 -27 -45 -11 -16 -23 -37 -27 -45 -4 -8 -32 -58
-63 -110 -31 -52 -59 -102 -63 -110 -4 -8 -16 -28 -27 -45 -11 -16 -23 -37
-27 -45 -4 -8 -25 -46 -48 -85 -22 -38 -44 -77 -48 -85 -4 -8 -16 -28 -27 -45
-11 -16 -23 -37 -27 -45 -4 -8 -32 -58 -63 -110 -31 -52 -59 -102 -63 -110 -4
-8 -16 -28 -27 -45 -11 -16 -23 -37 -27 -45 -8 -18 -119 -208 -133 -230 -6 -8
-13 -22 -17 -30 -8 -17 -147 -257 -163 -280 -6 -8 -13 -22 -17 -30 -4 -8 -17
-32 -30 -52 -46 -75 -84 -150 -78 -157 4 -3 617 -7 1362 -9 1004 -2 1359 1
1369 9 12 10 14 98 12 518 -2 331 -6 505 -13 504 -5 -2 -13 -38 -16 -80 -13
-169 -79 -359 -175 -505 -46 -69 -170 -192 -239 -237 -54 -35 -141 -79 -190
-97 -110 -40 -153 -52 -190 -56 -37 -3 -40 -1 -43 23 -2 14 4 31 12 39 9 7 16
25 16 40 0 15 7 33 15 40 8 7 15 24 15 39 0 14 7 35 15 45 8 11 15 29 15 40 0
12 7 30 15 40 8 11 15 32 15 47 0 14 7 32 15 39 8 7 15 25 15 40 0 15 7 33 15
40 8 7 15 25 15 40 0 15 7 33 15 40 8 7 15 24 15 39 0 14 7 35 15 45 8 11 15
32 15 47 0 14 7 32 15 39 8 7 15 25 15 40 0 15 7 33 15 40 8 7 15 25 15 40 0
15 7 33 15 40 8 7 15 25 15 40 0 15 7 33 15 40 8 7 15 24 15 39 0 14 7 35 15
45 8 11 15 26 15 35 0 8 8 32 18 53 l17 38 609 -3 610 -2 7 -25 c4 -14 17 -50
29 -80 12 -30 25 -66 30 -80 5 -14 18 -50 30 -80 12 -30 24 -66 27 -80 3 -14
9 -29 13 -35 4 -5 13 -26 18 -45 6 -19 20 -60 32 -90 12 -30 25 -66 30 -80 5
-14 18 -50 30 -80 12 -30 25 -68 30 -85 5 -16 18 -55 30 -85 12 -30 25 -66 30
-80 5 -14 18 -50 30 -80 12 -30 25 -69 29 -85 4 -17 13 -40 19 -52 28 -52 28
-52 -193 -55 -128 -2 -205 -7 -205 -13 0 -16 1662 -14 1667 2 4 10 -44 13
-204 15 l-208 3 -3 890 c-2 664 1 896 9 912 9 17 9 26 0 36 -8 11 -10 226 -9
838 l3 824 260 0 c178 0 279 -4 320 -13 78 -17 209 -68 254 -99 136 -93 237
-244 284 -428 66 -255 43 -676 -47 -863 -95 -200 -292 -270 -771 -274 l-190
-2 245 -7 c359 -11 446 -24 600 -89 61 -26 159 -97 205 -148 43 -48 81 -117
107 -192 22 -62 23 -79 23 -385 0 -289 -2 -322 -17 -345 -10 -13 -18 -36 -18
-51 0 -15 -7 -32 -15 -39 -8 -7 -15 -25 -15 -40 0 -15 -7 -33 -15 -40 -8 -7
-15 -25 -15 -40 0 -15 -7 -33 -15 -40 -8 -7 -15 -24 -15 -39 0 -14 -7 -35 -15
-45 -8 -11 -15 -31 -15 -44 0 -13 -7 -30 -15 -38 -8 -9 -15 -28 -15 -43 0 -16
-7 -34 -15 -41 -8 -7 -15 -23 -15 -35 0 -13 -8 -38 -17 -57 -9 -18 -19 -40
-23 -48 -6 -12 -39 -16 -174 -20 -101 -3 -166 -9 -166 -15 0 -6 123 -10 350
-10 225 0 351 4 353 10 1 6 -59 11 -160 13 l-163 2 0 36 c0 19 7 42 15 50 8 9
15 28 15 43 0 16 7 34 15 41 8 7 15 24 15 39 0 14 7 35 15 45 8 11 15 29 15
40 0 12 7 30 15 40 8 11 15 30 15 42 0 12 7 27 15 34 8 7 15 24 15 39 0 14 7
35 15 45 8 11 15 32 15 47 0 14 7 32 15 39 8 7 15 21 15 31 0 27 19 33 24 7
24 -134 41 -203 61 -257 132 -358 418 -518 818 -457 49 7 94 19 100 25 6 6 21
11 33 11 13 0 26 5 29 11 4 5 17 15 28 20 50 22 107 66 107 81 0 13 -28 9 -37
-4 -9 -15 -37 -33 -70 -48 -13 -5 -23 -14 -23 -20 0 -5 -10 -10 -22 -10 -13 0
-41 -7 -63 -15 -56 -20 -105 -18 -168 5 -96 36 -155 119 -198 275 -16 62 -19
108 -19 395 0 331 -9 441 -45 526 -8 18 -11 35 -8 38 4 3 204 6 445 6 l438 0
10 -27 c6 -16 14 -37 19 -48 5 -11 12 -29 14 -40 3 -11 15 -45 27 -75 12 -30
25 -66 30 -80 5 -14 18 -50 30 -80 11 -30 32 -86 45 -125 13 -38 33 -95 45
-125 32 -85 49 -129 75 -205 13 -38 33 -95 45 -125 12 -30 25 -66 30 -80 5
-14 18 -50 30 -80 13 -30 23 -66 24 -80 l1 -25 -203 -5 c-122 -3 -203 -9 -205
-15 -1 -7 250 -11 736 -13 651 -2 737 0 737 13 0 13 -32 15 -234 15 -244 0
-246 0 -259 45 -3 11 -15 45 -27 75 -12 30 -32 87 -45 125 -13 39 -33 95 -45
125 -38 101 -51 135 -75 205 -13 39 -34 95 -45 125 -12 30 -25 66 -30 80 -5
14 -18 50 -30 80 -12 30 -32 87 -45 125 -13 39 -34 95 -45 125 -12 30 -25 66
-30 80 -5 14 -18 50 -30 80 -12 30 -25 69 -30 85 -5 17 -18 55 -30 85 -12 30
-25 66 -30 80 -5 14 -18 50 -30 80 -12 30 -25 69 -30 85 -5 17 -18 55 -30 85
-12 30 -25 66 -30 80 -5 14 -18 50 -30 80 -12 30 -32 87 -45 125 -13 39 -33
95 -45 125 -38 101 -51 135 -75 205 -13 39 -34 95 -45 125 -12 30 -25 66 -30
80 -5 14 -18 50 -30 80 -12 30 -32 87 -45 125 -13 39 -33 95 -45 125 -38 101
-51 135 -75 205 -13 39 -34 95 -45 125 -12 30 -25 66 -30 80 -5 14 -18 50 -30
80 -12 30 -25 69 -30 85 -5 17 -18 55 -30 85 -12 30 -24 63 -27 73 -8 24 -30
21 -36 -5 -5 -22 -13 -42 -57 -158 -12 -30 -25 -70 -30 -88 -4 -18 -12 -38
-18 -45 -5 -7 -12 -23 -15 -37 -3 -14 -15 -50 -27 -80 -12 -30 -25 -66 -30
-80 -5 -14 -18 -50 -30 -80 -12 -30 -25 -68 -30 -85 -5 -16 -18 -55 -30 -85
-12 -30 -25 -68 -28 -85 -3 -16 -11 -35 -18 -43 -8 -7 -14 -25 -14 -38 0 -14
-7 -32 -15 -40 -8 -9 -15 -28 -15 -43 0 -16 -7 -34 -15 -41 -8 -7 -15 -25 -15
-40 0 -15 -7 -33 -15 -40 -8 -7 -15 -25 -15 -40 0 -15 -7 -33 -15 -40 -8 -7
-15 -24 -15 -39 0 -14 -7 -35 -15 -45 -8 -11 -15 -29 -15 -40 0 -12 -7 -30
-15 -40 -8 -11 -15 -32 -15 -47 0 -14 -7 -32 -15 -39 -8 -7 -15 -25 -15 -40 0
-15 -7 -33 -15 -40 -8 -7 -15 -25 -15 -40 0 -15 -7 -33 -15 -40 -8 -7 -15 -24
-15 -39 0 -14 -7 -35 -15 -45 -8 -11 -15 -31 -15 -44 0 -13 -7 -30 -15 -38 -8
-9 -15 -28 -15 -43 0 -16 -7 -34 -15 -41 -8 -7 -15 -25 -15 -40 0 -15 -7 -33
-15 -40 -8 -7 -15 -25 -15 -40 0 -15 -7 -33 -15 -40 -8 -7 -15 -26 -15 -42 0
-31 -24 -48 -46 -32 -145 103 -299 179 -414 203 -19 5 -53 13 -75 19 -22 5
-68 15 -103 22 -89 16 -121 28 -102 40 8 6 28 10 45 10 87 0 359 116 475 203
153 114 230 217 293 392 31 86 30 299 -1 397 -51 161 -136 290 -260 394 -179
149 -386 233 -677 276 -113 16 -1707 19 -1715 3 -3 -6 70 -12 205 -15 l210 -5
0 -1332 c0 -884 -3 -1332 -10 -1331 -9 2 -15 14 -50 115 -9 23 -29 79 -46 125
-17 46 -34 94 -39 108 -5 14 -18 50 -30 80 -11 30 -32 87 -45 125 -13 39 -33
95 -45 125 -12 30 -25 66 -30 80 -5 14 -18 50 -30 80 -12 30 -25 69 -30 85 -5
17 -18 55 -30 85 -12 30 -25 66 -30 80 -5 14 -18 50 -30 80 -12 30 -25 69 -30
85 -5 17 -18 55 -30 85 -12 30 -25 66 -30 80 -5 14 -18 50 -30 80 -12 30 -24
66 -27 80 -3 14 -10 30 -15 37 -6 7 -14 27 -18 45 -5 18 -18 58 -30 88 -12 30
-25 66 -30 80 -5 14 -18 50 -30 80 -12 30 -25 69 -30 85 -5 17 -18 55 -30 85
-12 30 -25 66 -30 80 -5 14 -18 50 -30 80 -11 30 -32 87 -45 125 -13 39 -33
95 -45 125 -12 30 -25 66 -30 80 -5 14 -18 50 -30 80 -12 30 -25 69 -30 85
-24 89 -52 120 -63 73z m-234 -830 c3 -13 15 -48 27 -78 12 -30 25 -68 30 -85
5 -16 18 -55 30 -85 28 -74 49 -130 60 -160 5 -14 18 -50 30 -80 12 -30 25
-68 30 -85 5 -16 18 -55 30 -85 12 -30 25 -66 30 -80 5 -14 18 -50 30 -80 12
-30 25 -68 30 -85 5 -16 18 -55 30 -85 12 -30 25 -66 30 -80 5 -14 18 -50 30
-80 12 -30 32 -86 45 -125 22 -64 40 -113 81 -220 9 -22 18 -52 21 -68 l5 -27
-588 2 -589 3 3 35 c2 19 10 42 18 51 8 8 14 27 14 41 0 14 7 31 15 38 8 7 15
24 15 39 0 14 7 35 15 45 8 11 15 31 15 44 0 13 7 30 15 38 8 9 15 28 15 43 0
16 7 34 15 41 8 7 15 25 15 40 0 15 7 33 15 40 8 7 15 24 15 39 0 14 7 35 15
45 8 11 15 29 15 40 0 12 7 30 15 40 8 11 15 32 15 47 0 14 7 32 15 39 8 7 15
25 15 40 0 15 7 33 15 40 8 7 15 24 15 39 0 14 7 35 15 45 8 11 15 29 15 40 0
12 7 30 15 40 8 11 15 31 15 44 0 13 7 30 15 38 8 9 15 28 15 43 0 16 7 34 15
41 8 7 15 25 15 40 0 15 7 33 15 40 8 7 15 24 15 39 0 14 7 35 15 45 8 11 15
29 15 40 0 12 7 30 15 40 8 11 15 31 15 44 0 13 7 30 15 38 8 9 15 29 15 45 0
16 4 29 9 29 5 0 14 14 20 31 11 33 26 32 34 -3z m3994 -16 c8 -20 18 -48 23
-62 5 -14 18 -50 30 -80 11 -30 32 -86 45 -125 24 -70 37 -104 75 -205 12 -30
32 -86 45 -125 26 -76 43 -121 76 -205 11 -30 23 -66 26 -80 3 -14 10 -30 15
-37 6 -7 14 -27 18 -45 5 -18 18 -58 30 -88 12 -30 25 -66 30 -80 5 -14 18
-50 30 -80 12 -30 25 -68 30 -85 5 -16 18 -55 30 -85 11 -30 28 -73 36 -95 9
-22 18 -52 21 -67 l5 -28 -434 0 c-487 0 -443 -7 -483 75 -22 45 -93 144 -139
193 -30 32 -30 33 -13 61 9 16 17 39 17 51 0 12 7 28 15 36 8 9 15 28 15 43 0
16 7 34 15 41 8 7 15 25 15 40 0 15 7 33 15 40 8 7 15 24 15 39 0 14 7 35 15
45 8 11 15 31 15 44 0 13 7 30 15 38 8 9 15 28 15 43 0 16 7 34 15 41 8 7 15
25 15 40 0 15 7 33 15 40 8 7 15 25 15 40 0 15 7 33 15 40 8 7 15 24 15 39 0
14 7 35 15 45 8 11 15 31 15 44 0 13 7 30 15 38 8 9 15 28 15 43 0 16 7 34 15
41 8 7 15 25 15 40 0 15 7 33 15 40 8 7 15 25 15 40 0 15 7 33 15 40 8 7 15
24 15 39 0 14 7 35 15 45 8 11 15 32 15 48 0 15 4 28 9 28 5 0 14 14 20 32 13
36 19 33 38 -20z"/>
<path d="M4843 1933 c9 -2 25 -2 35 0 9 3 1 5 -18 5 -19 0 -27 -2 -17 -5z"/>
</g>
</svg>
